# File created by Blade
# Date/Time:  Thu Jan 22 16:00:53 2015
#---------------------------------------------------------
:version 1.10
:name HOM
:units
  mass 1.0
  length 1.000000
  angle deg
:documentation
     Acclaim Skeleton File
:root
   axis xyz
   order TX TY TZ RX RY RZ
   position 0.000000 0.000000 0.000000
   orientation 0 0 0
:bonedata
   begin
      id 1
      name RightUpLeg_dum
      direction -1.000000 0.000000 0.000000
      length 3.766986
      axis 0.0 0.0 0.0 xyz
   end
   begin
      id 2
      name LeftUpLeg_dum
      direction 1.000000 0.000000 0.000000
      length 3.766986
      axis 0.0 0.0 0.0 xyz
   end
   begin
      id 3
      name Spine_dum
      direction 0.000000 1.000000 0.000000
      length 7.779697
      axis 0.0 0.0 0.0 xyz
   end
   begin
      id 4
      name RightUpLeg
      direction 0.000000 -1.000000 0.000000
      length 18.017682
      axis 0.0 0.0 0.0 xyz
      dof rx ry rz
   end
   begin
      id 5
      name RightLeg
      direction 0.000000 -1.000000 0.000000
      length 16.881075
      axis 0.0 0.0 0.0 xyz
      dof rx ry rz
   end
   begin
      id 6
      name RightFoot
      direction 0.000000 -0.258819 0.965926
      length 5.770812
      axis 15.0 0.0 0.0 xyz
      dof rx ry rz
   end
   begin
      id 7
      name RightToeBase
      direction 0.000000 0.000000 1.000000
      length 2.952750
      axis 0.0 0.0 0.0 xyz
      dof rx ry rz
   end
   begin
      id 8
      name LeftUpLeg
      direction 0.000000 -1.000000 0.000000
      length 18.017682
      axis 0.0 0.0 0.0 xyz
      dof rx ry rz
   end
   begin
      id 9
      name LeftLeg
      direction 0.000000 -1.000000 0.000000
      length 16.881075
      axis 0.0 0.0 0.0 xyz
      dof rx ry rz
   end
   begin
      id 10
      name LeftFoot
      direction 0.000000 -0.258819 0.965926
      length 5.770812
      axis 15.0 0.0 0.0 xyz
      dof rx ry rz
   end
   begin
      id 11
      name LeftToeBase
      direction 0.000000 0.000000 1.000000
      length 2.952750
      axis 0.0 0.0 0.0 xyz
      dof rx ry rz
   end
   begin
      id 12
      name Spine
      direction 0.000000 1.000000 0.000000
      length 0.000000
      axis 0.0 0.0 0.0 xyz
      dof rx ry rz
   end
   begin
      id 13
      name Spine_dum1
      direction 0.000000 1.000000 0.000000
      length 10.941760
      axis 0.0 0.0 0.0 xyz
   end
   begin
      id 14
      name Spine_dum2
      direction 0.000000 1.000000 0.000000
      length 10.941760
      axis 0.0 0.0 0.0 xyz
   end
   begin
      id 15
      name Spine_dum3
      direction 0.000000 1.000000 0.000000
      length 16.646042
      axis 0.0 0.0 0.0 xyz
   end
   begin
      id 16
      name RightShoulder
      direction -1.000000 0.000000 0.000000
      length 7.708937
      axis 0.0 0.0 90.0 xyz
      dof rx ry rz
   end
   begin
      id 17
      name RightArm
      direction -1.000000 0.000000 0.000000
      length 11.521345
      axis 0.0 0.0 90.0 xyz
      dof rx ry rz
   end
   begin
      id 18
      name RightForeArm
      direction -1.000000 0.000000 0.000000
      length 10.175898
      axis 0.0 0.0 90.0 xyz
      dof ry rz rx
   end
   begin
      id 19
      name RightHand
      direction -1.000000 0.000000 0.000000
      length 0.000000
      axis 0.0 0.0 90.0 xyz
      dof rx ry rz
   end
   begin
      id 20
      name RightHand_dum1
      direction -1.000000 0.000000 0.000000
      length 3.937000
      axis 0.0 0.0 90.0 xyz
   end
   begin
      id 21
      name RightHand_dum2
      direction 0.000000 0.000000 0.000000
      length 0.000000
      axis 0.0 0.0 90.0 xyz
   end
   begin
      id 22
      name RightHandThumb1
      direction 0.000000 0.000000 1.000000
      length 3.937000
      axis 0.0 0.0 90.0 xyz
      dof rx rz ry
   end
   begin
      id 23
      name LeftShoulder
      direction 1.000000 0.000000 0.000000
      length 7.708937
      axis 0.0 0.0 -90.0 xyz
      dof rx ry rz
   end
   begin
      id 24
      name LeftArm
      direction 1.000000 0.000000 0.000000
      length 11.521345
      axis 0.0 0.0 -90.0 xyz
      dof rx ry rz
   end
   begin
      id 25
      name LeftForeArm
      direction 1.000000 0.000000 0.000000
      length 10.175898
      axis 0.0 0.0 -90.0 xyz
      dof ry rz rx
   end
   begin
      id 26
      name LeftHand
      direction 1.000000 0.000000 0.000000
      length 0.000000
      axis 0.0 0.0 -90.0 xyz
      dof rx ry rz
   end
   begin
      id 27
      name LeftHand_dum1
      direction 1.000000 0.000000 0.000000
      length 3.937000
      axis 0.0 0.0 -90.0 xyz
   end
   begin
      id 28
      name LeftHand_dum2
      direction 0.000000 0.000000 0.000000
      length 0.000000
      axis 0.0 0.0 -90.0 xyz
   end
   begin
      id 29
      name LeftHandThumb1
      direction 0.000000 0.000000 1.000000
      length 3.937000
      axis 0.0 0.0 -90.0 xyz
      dof rx rz ry
   end
   begin
      id 30
      name Head
      direction 0.000000 1.000000 0.000000
      length 4.527550
      axis 0.0 0.0 0.0 xyz
      dof rx ry rz
   end
:hierarchy
   begin
      root RightUpLeg_dum LeftUpLeg_dum Spine_dum
      RightUpLeg_dum RightUpLeg
      LeftUpLeg_dum LeftUpLeg
      Spine_dum Spine
      RightUpLeg RightLeg
      RightLeg RightFoot
      RightFoot RightToeBase
      LeftUpLeg LeftLeg
      LeftLeg LeftFoot
      LeftFoot LeftToeBase
      Spine Spine_dum1 Spine_dum2 Spine_dum3
      Spine_dum1 RightShoulder
      Spine_dum2 LeftShoulder
      Spine_dum3 Head
      RightShoulder RightArm
      RightArm RightForeArm
      RightForeArm RightHand
      RightHand RightHand_dum1 RightHand_dum2
      RightHand_dum2 RightHandThumb1
      LeftShoulder LeftArm
      LeftArm LeftForeArm
      LeftForeArm LeftHand
      LeftHand LeftHand_dum1 LeftHand_dum2
      LeftHand_dum2 LeftHandThumb1
   end

# File created by Blade
# Date/Time:  Thu Jan 22 16:00:44 2015
# Frame Rate: 120.000 fps
#------------------------------------------------------
:FULLY-SPECIFIED
:DEGREES
322
root 4.143793 37.057971 -1.757083 48.973844 -2.757646 1.210629
RightUpLeg -59.404698 -2.953076 -4.980403
RightLeg 5.986251 -0.000000 -0.000000
RightFoot -2.074823 -15.073650 17.356598
RightToeBase 12.183635 -0.000000 -0.000000
LeftUpLeg -62.040853 0.629572 1.828376
LeftLeg 9.181898 -0.000000 -0.000000
LeftFoot -0.290410 15.550256 -17.657218
LeftToeBase 8.712390 -0.000000 -0.000000
Spine 81.374239 -4.291510 -9.292105
RightShoulder -15.272230 -63.539621 -25.338465
RightArm -14.605101 1.191197 83.498769
RightForeArm 5.871717 0.000000 3.966878
RightHand -13.435529 -0.000000 41.518771
RightHandThumb1 -24.326973 -0.000000 -32.862282
LeftShoulder -99.708739 64.521384 -61.179696
LeftArm 10.220924 -1.894688 -82.565881
LeftForeArm 38.352316 -0.000000 -4.389235
LeftHand -16.332030 -0.000000 -50.615865
LeftHandThumb1 -26.253704 0.000000 33.147579
Head 19.788406 16.375665 -1.159244
323
root 4.142942 37.047486 -1.779431 48.983410 -2.723285 1.244051
RightUpLeg -59.554719 -3.002162 -4.983213
RightLeg 6.220252 -0.000000 -0.000000
RightFoot -2.205366 -15.016360 17.357301
RightToeBase 12.197894 -0.000000 -0.000000
LeftUpLeg -62.202237 0.522955 1.924777
LeftLeg 9.400235 -0.000000 -0.000000
LeftFoot -0.375968 15.644164 -17.674114
LeftToeBase 8.769253 -0.000000 -0.000000
Spine 81.386745 -4.398915 -9.236750
RightShoulder -15.238054 -63.626365 -25.446714
RightArm -14.671177 1.121273 83.395131
RightForeArm 6.168902 -0.000000 3.977101
RightHand -13.639479 -0.000000 41.574010
RightHandThumb1 -24.326973 -0.000000 -32.862282
LeftShoulder -99.821119 64.557858 -61.323133
LeftArm 10.104732 -1.836663 -82.465948
LeftForeArm 38.334217 0.000000 -4.421497
LeftHand -16.307252 -0.000000 -50.693873
LeftHandThumb1 -26.253704 0.000000 33.147579
Head 19.888505 16.399285 -1.282720
324
root 4.134971 37.039005 -1.796169 48.964299 -2.736312 1.247654
RightUpLeg -59.668430 -2.965551 -5.024279
RightLeg 6.450076 -0.000000 -0.000000
RightFoot -2.343640 -14.988137 17.375421
RightToeBase 12.243523 -0.000000 -0.000000
LeftUpLeg -62.296440 0.500528 1.981254
LeftLeg 9.579085 -0.000000 -0.000000
LeftFoot -0.453167 15.691406 -17.698155
LeftToeBase 8.755783 -0.000000 -0.000000
Spine 81.419992 -4.382398 -9.191689
RightShoulder -15.143707 -63.715949 -25.530054
RightArm -14.747690 1.082749 83.355772
RightForeArm 5.946931 -0.000000 3.988382
RightHand -13.503137 -0.000000 41.599370
RightHandThumb1 -24.326973 -0.000000 -32.862282
LeftShoulder -99.824173 64.624296 -61.282225
LeftArm 9.949843 -1.816388 -82.395477
LeftForeArm 38.310703 -0.000000 -4.449119
LeftHand -16.210713 -0.000000 -50.702087
LeftHandThumb1 -26.253704 0.000000 33.147579
Head 20.022267 16.410263 -1.238471
325
root 4.117777 37.034533 -1.806598 48.894084 -2.791741 1.198971
RightUpLeg -59.712991 -2.826076 -5.080646
RightLeg 6.647686 -0.000000 -0.000000
RightFoot -2.436989 -15.022904 17.399743
RightToeBase 12.222725 -0.000000 -0.000000
LeftUpLeg -62.309495 0.576201 2.014146
LeftLeg 9.740315 -0.000000 -0.000000
LeftFoot -0.532795 15.691713 -17.717630
LeftToeBase 8.733954 -0.000000 -0.000000
Spine 81.546792 -4.252610 -9.149354
RightShoulder -15.172340 -63.696874 -25.505943
RightArm -14.867132 0.920633 83.305015
RightForeArm 5.970571 -0.000000 4.005376
RightHand -13.489734 -0.000000 41.571921
RightHandThumb1 -24.326973 -0.000000 -32.862282
LeftShoulder -99.764892 64.652010 -61.134736
LeftArm 9.812776 -1.799821 -82.310554
LeftForeArm 38.417570 0.000000 -4.405324
LeftHand -16.208155 -0.000000 -50.739728
LeftHandThumb1 -26.253704 0.000000 33.147579
Head 20.040382 16.429880 -1.182574
326
root 4.098767 37.026717 -1.818194 48.843841 -2.856298 1.150708
RightUpLeg -59.795638 -2.669087 -5.160381
RightLeg 6.874490 -0.000000 -0.000000
RightFoot -2.571972 -15.070732 17.438885
RightToeBase 12.146777 -0.000000 -0.000000
LeftUpLeg -62.355124 0.667974 2.028293
LeftLeg 9.924181 -0.000000 -0.000000
LeftFoot -0.625117 15.673596 -17.718387
LeftToeBase 8.737516 -0.000000 -0.000000
Spine 81.618533 -4.114915 -9.117749
RightShoulder -15.127763 -63.728620 -25.532630
RightArm -14.947432 0.789048 83.292140
RightForeArm 6.082527 -0.000000 4.008585
RightHand -13.455056 -0.000000 41.571576
RightHandThumb1 -24.326973 -0.000000 -32.862282
LeftShoulder -99.845792 64.691725 -61.126517
LeftArm 9.738856 -1.807635 -82.254318
LeftForeArm 38.409467 -0.000000 -4.392414
LeftHand -16.219497 -0.000000 -50.749998
LeftHandThumb1 -26.253704 0.000000 33.147579
Head 20.128048 16.398482 -1.156758
327
root 4.090782 37.015914 -1.841592 48.856297 -2.861544 1.166667
RightUpLeg -59.999219 -2.637435 -5.218778
RightLeg 7.200953 -0.000000 -0.000000
RightFoot -2.749550 -15.045826 17.469029
RightToeBase 12.227196 -0.000000 -0.000000
LeftUpLeg -62.505548 0.617332 2.103878
LeftLeg 10.127234 -0.000000 -0.000000
LeftFoot -0.723821 15.747447 -17.755955
LeftToeBase 8.779615 -0.000000 -0.000000
Spine 81.603233 -4.123003 -9.068086
RightShoulder -15.145225 -63.783281 -25.534612
RightArm -15.001632 0.675054 83.230968
RightForeArm 6.223457 -0.000000 3.991637
RightHand -13.550330 -0.000000 41.672542
RightHandThumb1 -24.326973 -0.000000 -32.862282
LeftShoulder -100.153042 64.706480 -61.402308
LeftArm 9.780339 -1.780143 -82.170141
LeftForeArm 38.478595 0.000000 -4.420167
LeftHand -16.095140 -0.000000 -50.764826
LeftHandThumb1 -26.253704 0.000000 33.147579
Head 20.237528 16.355578 -1.174211
328
root 4.091982 37.000639 -1.875445 48.977656 -2.773537 1.219806
RightUpLeg -60.351806 -2.754339 -5.177244
RightLeg 7.590700 -0.000000 -0.000000
RightFoot -2.940893 -14.964513 17.462677
RightToeBase 12.238575 -0.000000 -0.000000
LeftUpLeg -62.815703 0.436157 2.270167
LeftLeg 10.368988 -0.000000 -0.000000
LeftFoot -0.831181 15.886449 -17.822401
LeftToeBase 8.788190 -0.000000 -0.000000
Spine 81.445834 -4.335892 -8.965142
RightShoulder -15.053781 -63.788422 -25.708163
RightArm -15.143374 0.560426 83.204247
RightForeArm 6.210268 -0.000000 4.006153
RightHand -13.440134 -0.000000 41.580515
RightHandThumb1 -24.326973 -0.000000 -32.862282
LeftShoulder -100.037736 64.747824 -61.313249
LeftArm 9.613334 -1.752208 -82.080879
LeftForeArm 38.455606 -0.000000 -4.423501
LeftHand -16.188112 0.000000 -50.771912
LeftHandThumb1 -26.253704 0.000000 33.147579
Head 20.454406 16.429786 -1.258514
329
root 4.084386 36.990485 -1.898964 49.009812 -2.750089 1.240270
RightUpLeg -60.573720 -2.747907 -5.204575
RightLeg 7.904962 -0.000000 -0.000000
RightFoot -3.089183 -14.981293 17.464082
RightToeBase 12.218372 -0.000000 -0.000000
LeftUpLeg -62.984031 0.364428 2.365878
LeftLeg 10.559664 -0.000000 -0.000000
LeftFoot -0.895875 15.956464 -17.845259
LeftToeBase 8.787989 -0.000000 -0.000000
Spine 81.414272 -4.374356 -8.896490
RightShoulder -15.051065 -63.847948 -25.738441
RightArm -15.198528 0.486492 83.185495
RightForeArm 6.252612 -0.000000 4.063044
RightHand -13.472572 -0.000000 41.624991
RightHandThumb1 -24.326973 -0.000000 -32.862282
LeftShoulder -100.220853 64.750007 -61.473348
LeftArm 9.610157 -1.771293 -82.013262
LeftForeArm 38.509504 0.000000 -4.382057
LeftHand -16.248825 -0.000000 -50.862248
LeftHandThumb1 -26.253704 0.000000 33.147579
Head 20.557617 16.477345 -1.198368
330
root 4.064311 36.985269 -1.907987 48.953626 -2.791269 1.200944
RightUpLeg -60.660495 -2.609525 -5.260621
RightLeg 8.152996 -0.000000 -0.000000
RightFoot -3.197122 -15.042708 17.460480
RightToeBase 12.217193 -0.000000 -0.000000
LeftUpLeg -62.998116 0.443078 2.383195
LeftLeg 10.698414 -0.000000 -0.000000
LeftFoot -0.967304 15.926133 -17.876718
LeftToeBase 8.743200 -0.000000 -0.000000
Spine 81.522615 -4.247410 -8.866405
RightShoulder -15.047150 -63.823165 -25.737912
RightArm -15.249842 0.378557 83.209134
RightForeArm 6.315756 -0.000000 4.076023
RightHand -13.470377 0.000000 41.677245
RightHandThumb1 -24.326973 -0.000000 -32.862282
LeftShoulder -100.140402 64.752835 -61.283705
LeftArm 9.540915 -1.718683 -81.956856
LeftForeArm 38.423681 -0.000000 -4.339093
LeftHand -16.166810 -0.000000 -50.923664
LeftHandThumb1 -26.253704 0.000000 33.147579
Head 20.578908 16.531007 -1.076242
331
root 4.048632 36.976353 -1.919074 48.924700 -2.798370 1.197457
RightUpLeg -60.792456 -2.559937 -5.276403
RightLeg 8.443328 -0.000000 -0.000000
RightFoot -3.350148 -15.036807 17.456989
RightToeBase 12.226145 -0.000000 -0.000000
LeftUpLeg -63.057149 0.454298 2.421532
LeftLeg 10.852747 -0.000000 -0.000000
LeftFoot -1.043558 15.915190 -17.874812
LeftToeBase 8.728698 -0.000000 -0.000000
Spine 81.594476 -4.209387 -8.855208
RightShoulder -15.006145 -63.849189 -25.770360
RightArm -15.234440 0.327352 83.230368
RightForeArm 6.295577 -0.000000 4.080497
RightHand -13.467775 -0.000000 41.743345
RightHandThumb1 -24.326973 -0.000000 -32.862282
LeftShoulder -100.043351 64.752939 -61.120311
LeftArm 9.478687 -1.656955 -81.928199
LeftForeArm 38.415165 -0.000000 -4.343929
LeftHand -16.125204 -0.000000 -50.969642
LeftHandThumb1 -26.253704 0.000000 33.147579
Head 20.589027 16.517334 -1.095717
332
root 4.027233 36.966491 -1.944001 48.981315 -2.868506 1.154987
RightUpLeg -61.059510 -2.403081 -5.364410
RightLeg 8.777643 -0.000000 -0.000000
RightFoot -3.483102 -15.092615 17.484117
RightToeBase 12.216359 -0.000000 -0.000000
LeftUpLeg -63.233481 0.559907 2.427018
LeftLeg 11.050029 -0.000000 -0.000000
LeftFoot -1.143566 15.893492 -17.935654
LeftToeBase 8.777802 -0.000000 -0.000000
Spine 81.523460 -4.082864 -8.793600
RightShoulder -15.108367 -63.942244 -25.668973
RightArm -15.200408 0.260963 83.264901
RightForeArm 6.332483 -0.000000 4.082586
RightHand -13.442569 -0.000000 41.741040
RightHandThumb1 -24.326973 -0.000000 -32.862282
LeftShoulder -100.016022 64.813954 -61.023382
LeftArm 9.472678 -1.631139 -81.891744
LeftForeArm 38.494833 -0.000000 -4.346240
LeftHand -16.081093 -0.000000 -51.031085
LeftHandThumb1 -26.253704 0.000000 33.147579
Head 20.646848 16.428495 -1.101655
333
root 4.014933 36.954661 -1.959922 48.983134 -2.867617 1.177720
RightUpLeg -61.232251 -2.369311 -5.430592
RightLeg 9.088314 -0.000000 -0.000000
RightFoot -3.677729 -15.088132 17.535071
RightToeBase 12.223656 -0.000000 -0.000000
LeftUpLeg -63.352300 0.519779 2.487505
LeftLeg 11.237528 -0.000000 -0.000000
LeftFoot -1.252441 15.939235 -17.991571
LeftToeBase 8.779754 -0.000000 -0.000000
Spine 81.559318 -4.083682 -8.755225
RightShoulder -15.148669 -63.916024 -25.661749
RightArm -15.225551 0.247726 83.285440
RightForeArm 6.251870 -0.000000 4.091467
RightHand -13.359598 -0.000000 41.696682
RightHandThumb1 -24.326973 -0.000000 -32.862282
LeftShoulder -100.008892 64.809892 -60.990281
LeftArm 9.509805 -1.633064 -81.858934
LeftForeArm 38.383165 0.000000 -4.350818
LeftHand -16.146328 -0.000000 -51.140119
LeftHandThumb1 -26.253704 0.000000 33.147579
Head 20.624771 16.426151 -1.122523
